{"title":"Ghost Lab - S02E08 - The Innocent.[tNe.XViD].avi","uid":6050258,"size":363903310,"categoryP":"video","categoryS":"tv_shows","magnet":"?xt=urn:btih:4f5b86646fbca28c2e5f99198598f2b3c600699f&amp;dn=Ghost+Lab+-+S02E08+-+The+Innocent.%5BtNe.XViD%5D.avi&amp;tr=udp%3A%2F%2Ftracker.openbittorrent.com%3A80&amp;tr=udp%3A%2F%2Fopen.demonii.com%3A1337&amp;tr=udp%3A%2F%2Ftracker.coppersurfer.tk%3A6969&amp;tr=udp%3A%2F%2Fexodus.desync.com%3A6969","seeders":0,"leechers":0,"uploader":"trialNerror","files":1,"time":1292699335,"description":"Format                           : AVI\nFormat/Info                      : Audio Video Interleave\nFile size                        : 347 MiB\nDuration                         : 43mn 33s\nOverall bit rate                 : 1 114 Kbps\nWriting application              : MEncoder SVN-r30881(20100311-gcc4.3.3)\nWriting library                  : MPlayer\n\nVideo\nID                               : 0\nFormat                           : MPEG-4 Visual\nFormat profile                   : Advanced Simple@L5\nFormat settings, BVOP            : Yes\nFormat settings, QPel            : No\nFormat settings, GMC             : No warppoints\nFormat settings, Matrix          : Default (H.263)\nCodec ID                         : XVID\nCodec ID/Hint                    : XviD\nDuration                         : 43mn 33s\nBit rate                         : 972 Kbps\nWidth                            : 624 pixels\nHeight                           : 352 pixels\nDisplay aspect ratio             : 16:9\nFrame rate                       : 29.970 fps\nColor space                      : YUV\nChroma subsampling               : 4:2:0\nBit depth                        : 8 bits\nScan type                        : Progressive\nBits/(Pixel*Frame)               : 0.148\nStream size                      : 303 MiB (87%)\nWriting library                  : XviD 1.2.1 (UTC 2008-12-04)\n\nAudio\nID                               : 1\nFormat                           : MPEG Audio\nFormat version                   : Version 1\nFormat profile                   : Layer 3\nMode                             : Joint stereo\nMode extension                   : MS Stereo\nCodec ID                         : 55\nCodec ID/Hint                    : MP3\nDuration                         : 43mn 32s\nBit rate mode                    : Constant\nBit rate                         : 128 Kbps\nChannel(s)                       : 2 channels\nSampling rate                    : 48.0 KHz\nVideo delay                      : 33ms\nStream size                      : 39.9 MiB (11%)\nAlignment                        : Aligned on interleaves\nInterleave, duration             : 24 ms (0.72 video frame)\nInterleave, preload duration     : 504 ms\n\n","torrent":{"xt":"urn:btih:4f5b86646fbca28c2e5f99198598f2b3c600699f","amp;dn":"Ghost+Lab+-+S02E08+-+The+Innocent.%5BtNe.XViD%5D.avi","amp;tr":["udp%3A%2F%2Ftracker.openbittorrent.com%3A80","udp%3A%2F%2Fopen.demonii.com%3A1337","udp%3A%2F%2Ftracker.coppersurfer.tk%3A6969","udp%3A%2F%2Fexodus.desync.com%3A6969"],"infoHash":"4f5b86646fbca28c2e5f99198598f2b3c600699f","infoHashBuffer":{"type":"Buffer","data":[79,91,134,100,111,188,162,140,46,95,153,25,133,152,242,179,198,0,105,159]},"announce":[],"urlList":[]}}